<svg width="181" height="145" viewBox="-1 -1 182 146" xmlns="http://www.w3.org/2000/svg"><g fill="none" fill-rule="evenodd"><path d="M106.34 63.18l-4.198 78.053s-7.63 2.6-23.345 2.614h-.226c-15.713.013-23.348-2.474-23.348-2.474v.013L51 63.373" fill="#FFF"/><path d="M105.34 63.18l-4.198 78.053s-7.63 2.6-23.345 2.614h-.226c-15.713.013-23.348-2.474-23.348-2.474v.013L50 63.373" fill="#F3F3F3"/><path d="M87 70.18s7.742 1.57 12.17 6c4.428 4.427 5.762 15.043 5.762 15.043l1.132-21.044H87z" fill="#E5E5E5"/><path d="M106.34 63.18l-4.198 78.053s-7.63 2.6-23.345 2.614h-.226c-15.713.013-23.348-2.474-23.348-2.474v.013L51 63.373" stroke="#828282" stroke-width="2" stroke-linejoin="round"/><path d="M83.177 110.864s.042-3.685-3.374-3.685H74" stroke="#828282" stroke-width="2" stroke-linecap="round" stroke-linejoin="round"/><ellipse fill="#FFF" cx="89.5" cy="92.679" rx="7.5" ry="7.5"/><ellipse fill="#FFF" cx="67.5" cy="92.679" rx="7.5" ry="7.5"/><path d="M90.788 92.073c0 .494-.4.894-.894.894-.493 0-.894-.4-.894-.894s.4-.894.894-.894.894.4.894.893" fill="#828282"/><path d="M90.788 92.073c0 .494-.4.894-.894.894-.493 0-.894-.4-.894-.894s.4-.894.894-.894.894.4.894.893z" stroke="#828282"/><path d="M68.788 92.073c0 .494-.4.894-.894.894-.493 0-.894-.4-.894-.894s.4-.894.894-.894.894.4.894.893" fill="#828282"/><path d="M68.788 92.073c0 .494-.4.894-.894.894-.493 0-.894-.4-.894-.894s.4-.894.894-.894.894.4.894.893z" stroke="#828282"/><path d="M106.667 63.58H51l2.504-14.4h50.658l2.505 14.4z" fill="#FFF"/><path d="M99 49.18l3.39 12 3.384.183-1.487-12.184H99z" fill="#E5E5E5"/><path d="M106.667 63.58H51l2.504-14.4h50.658l2.505 14.4z" stroke="#828282" stroke-width="2" stroke-linejoin="round"/><path d="M112.562 69.846H43l1.88-8.667h65.802l1.88 8.666z" fill="#FFF"/><path d="M112.562 69.846H43l1.88-8.667h65.802l1.88 8.666z" stroke="#828282" stroke-width="2" stroke-linejoin="round"/><path d="M19.326 70.796L9 69.18M134 86.197c4.585 2.04 9.92.486 14.56-1.428 4.78-1.973 9.637-4.508 12.442-8.854 2.805-4.344 2.704-10.943-1.475-13.99-.42-.306-.878-.574-1.384-.686-.765-.17-1.576.034-2.26.415-3.07 1.714-3.07 6.51-.793 9.19 2.28 2.677 5.947 3.675 9.426 4.19 3.518.524 7.157.693 10.593-.227 2.088-.558 4.217-1.66 5.127-3.62M32.278 37.29c.152-5.015-3.306-9.364-6.834-12.934-3.636-3.68-7.82-7.215-12.903-8.165C7.458 15.24 1.39 17.83.15 22.853c-.125.505-.2 1.03-.112 1.542.133.772.628 1.445 1.24 1.933 2.75 2.194 7.19.378 8.805-2.744 1.617-3.123 1.15-6.896.313-10.312-.85-3.452-2.07-6.884-4.222-9.717C4.866 1.83 3.04.278.88.18M37.462 122.18c-10.658 1.288-21.2 3.528-31.462 6.684M134 33.544c6.313-2.45 12.356-5.597 17.983-9.365M88 24.324c4.157-2.484 8.937-3.915 13.775-4.125-2.192-2.59-4.382-5.18-6.574-7.768-.368-.436-.76-1.018-.51-1.532.187-.378.64-.525 1.044-.644 5.588-1.646 10.572-5.27 13.862-10.077" stroke="#444" stroke-width="2" stroke-linecap="round" stroke-linejoin="round"/></g></svg>
